<mxfile host="app.diagrams.net" modified="2023-04-25T01:14:15.644Z" agent="Mozilla/5.0 (Windows NT 10.0; Win64; x64) AppleWebKit/537.36 (KHTML, like Gecko) Chrome/112.0.0.0 Safari/537.36" etag="hrR6L54Cbc-1qNNXZZEp" version="21.2.1" type="github">
  <diagram name="第 1 页" id="KX9IDbfUzw6TMT9u01_6">
    <mxGraphModel dx="2074" dy="1060" grid="1" gridSize="10" guides="1" tooltips="1" connect="1" arrows="1" fold="1" page="1" pageScale="1" pageWidth="827" pageHeight="1169" math="0" shadow="0">
      <root>
        <mxCell id="0" />
        <mxCell id="1" parent="0" />
        <mxCell id="cilGnPYjygBzjwuq-ANM-3" style="edgeStyle=orthogonalEdgeStyle;rounded=0;orthogonalLoop=1;jettySize=auto;html=1;" edge="1" parent="1" source="cilGnPYjygBzjwuq-ANM-1" target="cilGnPYjygBzjwuq-ANM-2">
          <mxGeometry relative="1" as="geometry" />
        </mxCell>
        <mxCell id="cilGnPYjygBzjwuq-ANM-4" value="委托订单" style="edgeLabel;html=1;align=center;verticalAlign=middle;resizable=0;points=[];" vertex="1" connectable="0" parent="cilGnPYjygBzjwuq-ANM-3">
          <mxGeometry x="-0.1619" relative="1" as="geometry">
            <mxPoint as="offset" />
          </mxGeometry>
        </mxCell>
        <mxCell id="cilGnPYjygBzjwuq-ANM-1" value="委托用户" style="ellipse;whiteSpace=wrap;html=1;" vertex="1" parent="1">
          <mxGeometry x="80" y="410" width="120" height="80" as="geometry" />
        </mxCell>
        <mxCell id="cilGnPYjygBzjwuq-ANM-2" value="订单池" style="shape=process;whiteSpace=wrap;html=1;backgroundOutline=1;" vertex="1" parent="1">
          <mxGeometry x="340" y="420" width="120" height="60" as="geometry" />
        </mxCell>
        <mxCell id="cilGnPYjygBzjwuq-ANM-6" style="edgeStyle=orthogonalEdgeStyle;rounded=0;orthogonalLoop=1;jettySize=auto;html=1;entryX=0.5;entryY=1;entryDx=0;entryDy=0;" edge="1" parent="1" source="cilGnPYjygBzjwuq-ANM-5" target="cilGnPYjygBzjwuq-ANM-2">
          <mxGeometry relative="1" as="geometry" />
        </mxCell>
        <mxCell id="cilGnPYjygBzjwuq-ANM-7" value="匹配订单" style="edgeLabel;html=1;align=center;verticalAlign=middle;resizable=0;points=[];" vertex="1" connectable="0" parent="cilGnPYjygBzjwuq-ANM-6">
          <mxGeometry x="0.1897" y="-2" relative="1" as="geometry">
            <mxPoint as="offset" />
          </mxGeometry>
        </mxCell>
        <mxCell id="cilGnPYjygBzjwuq-ANM-5" value="矿工群" style="swimlane;whiteSpace=wrap;html=1;" vertex="1" parent="1">
          <mxGeometry x="300" y="610" width="200" height="60" as="geometry" />
        </mxCell>
        <mxCell id="cilGnPYjygBzjwuq-ANM-9" style="edgeStyle=orthogonalEdgeStyle;rounded=0;orthogonalLoop=1;jettySize=auto;html=1;entryX=0.5;entryY=0;entryDx=0;entryDy=0;" edge="1" parent="1" source="cilGnPYjygBzjwuq-ANM-8" target="cilGnPYjygBzjwuq-ANM-2">
          <mxGeometry relative="1" as="geometry" />
        </mxCell>
        <mxCell id="cilGnPYjygBzjwuq-ANM-10" value="选择订单，进行交易" style="edgeLabel;html=1;align=center;verticalAlign=middle;resizable=0;points=[];" vertex="1" connectable="0" parent="cilGnPYjygBzjwuq-ANM-9">
          <mxGeometry x="-0.2467" y="1" relative="1" as="geometry">
            <mxPoint as="offset" />
          </mxGeometry>
        </mxCell>
        <mxCell id="cilGnPYjygBzjwuq-ANM-8" value="用户" style="ellipse;whiteSpace=wrap;html=1;" vertex="1" parent="1">
          <mxGeometry x="340" y="240" width="120" height="80" as="geometry" />
        </mxCell>
      </root>
    </mxGraphModel>
  </diagram>
</mxfile>
